# Alias OBJ Model File
# Exported from SketchUp, (c) 2000-2012 Trimble Navigation Limited
# File units = inches

mtllib CubesWithNames.mtl

g Mesh1 Sam Model

usemtl Brick_Antique_02
v 12 12 -12
vt 12 12
vn 0 1 -0
v 0 12 -12
vt 0 12
v 0 12 -0
vt 0 0
v 12 12 -0
vt 12 0
f 1/1/1 2/2/1 3/3/1 4/4/1 

v 12 0 -12
vt -12 0
vn 0 0 -1
v 0 0 -12
vt -12 12
f 5/5/2 6/3/2 2/2/2 1/6/2 

vn 0 -1 -0
v 12 0 -0
v 0 0 -0
f 6/2/3 5/6/3 7/5/3 8/3/3 

vn 1 0 -0
f 7/3/4 5/4/4 1/1/4 4/2/4 

vn 0 0 1
f 8/3/5 7/4/5 4/1/5 3/2/5 

vn -1 0 -0
f 6/5/6 8/3/6 3/2/6 2/6/6 

g Mesh2 Fred Model

usemtl FrontColor
v 36 12 -12
v 24 12 -12
v 24 12 -0
v 36 12 -0
f 9/1/1 10/2/1 11/3/1 12/4/1 

v 36 0 -12
v 24 0 -12
f 13/5/2 14/3/2 10/2/2 9/6/2 

v 36 0 -0
v 24 0 -0
f 14/2/3 13/6/3 15/5/3 16/3/3 

f 15/3/4 13/4/4 9/1/4 12/2/4 

f 16/3/5 15/4/5 12/1/5 11/2/5 

f 14/5/6 16/3/6 11/2/6 10/6/6 

g Mesh3 Dad Model

v 0 0 24
v 12 0 24
v 12 12 24
v 0 12 24
f 17/3/5 18/4/5 19/1/5 20/2/5 

v 0 0 12
v 12 0 12
f 21/2/3 22/6/3 18/5/3 17/3/3 

v 0 12 12
v 12 12 12
f 22/5/2 21/3/2 23/2/2 24/6/2 

f 21/5/6 17/3/6 20/2/6 23/6/6 

f 24/1/1 23/2/1 20/3/1 19/4/1 

f 18/3/4 22/4/4 24/1/4 19/2/4 

