# Alias OBJ Model File
# Exported from SketchUp, (c) 2000-2012 Trimble Navigation Limited
# File units = inches

mtllib TeklaTest.mtl

g Mesh1 IfcColumn___COLUMN Model

usemtl _auto_
v -735.893 -33.2522 2748.14
vt -2608.19 -33.2532
vn 0.988886 -8.77364e-07 -0.148673
v -736.013 -33.2522 2747.34
vt -2607.38 -33.2532
v -736.013 316.498 2747.34
vt -2607.38 316.497
f 1/1/1 2/2/1 3/3/1

v -747.859 -33.2522 2749.94
vt 747.859 -2749.94
vn -1.53425e-06 -1 2.30665e-07
vt 736.013 -2747.34
vt 735.893 -2748.14
f 4/4/2 2/5/2 1/6/2

vn -6.94356e-06 -1 -2.44137e-05
vt 747.858 -2749.94
v -741.749 -33.2522 2748.2
vt 741.749 -2748.2
f 2/5/3 4/7/3 5/8/3

vn 0 -1 -0
v -747.979 -33.2522 2749.14
vt 747.979 -2749.14
f 5/8/4 4/4/4 6/9/4

vt 2607.38 -33.2532
vn -0.988886 8.7558e-07 0.148673
vt 2608.19 -33.2532
v -747.858 316.498 2749.94
vt 2608.19 316.497
f 6/10/5 4/11/5 7/12/5

vt -1148.39 -33.2501
vn 0.148673 -8.10126e-07 0.988886
v -735.893 316.498 2748.14
vt -1136.29 316.5
vt -1148.39 316.5
f 4/13/6 8/14/6 7/15/6

vn 0.148673 -8.08467e-07 0.988886
vt -1136.29 -33.2501
f 4/13/7 1/16/7 8/14/7

vn 0.988887 -8.7583e-07 -0.148672
vt -2608.19 316.497
f 1/1/8 3/3/8 8/17/8

vt -736.013 -2747.34
vn 0 1 -0
vt -747.858 -2749.94
vt -735.893 -2748.14
f 3/18/9 7/19/9 8/20/9

v -747.979 316.498 2749.14
vt -747.979 -2749.14
f 7/19/9 3/18/9 9/21/9

vn -0.988887 8.77489e-07 0.148672
vt 2607.38 316.497
f 6/10/10 7/12/10 9/22/10

v -742.243 -33.2522 2748.27
vt 1142.59 -33.2501
vn -0.148673 8.08717e-07 -0.988886
vt 1148.39 -33.2501
vt 1148.39 316.5
f 10/23/11 6/24/11 9/25/11

vn -0.148673 8.08576e-07 -0.988886
v -742.243 316.498 2748.27
vt 1142.59 316.5
f 10/23/12 9/25/12 11/26/12

v -743.861 -33.2522 2737.52
vt 2596.5 -33.2532
vn -0.988886 8.76555e-07 0.148673
f 12/27/13 10/10/13 11/22/13

v -743.367 -33.2522 2737.44
vt 743.367 -2737.44
vt 742.243 -2748.27
vt 743.861 -2737.52
f 13/28/4 10/29/4 12/30/4

f 10/29/4 13/28/4 5/8/4

vn 0.988886 -8.76555e-07 -0.148673
vt -2596.5 -33.2532
v -743.366 316.498 2737.44
vt -2596.5 316.497
f 5/2/14 13/31/14 14/32/14

vt -1142.09 -33.2501
vn 0.148673 -8.08576e-07 0.988886
v -737.631 316.498 2736.58
vt -1142.09 316.5
f 13/33/15 15/14/15 14/34/15

vn 0.148673 -8.08717e-07 0.988886
v -737.631 -33.2522 2736.58
f 13/33/16 16/16/16 15/14/16

v -737.751 -33.2522 2735.78
vt 737.751 -2735.78
vt 737.631 -2736.58
f 13/28/4 17/35/4 16/36/4

f 17/35/4 13/28/4 12/30/4

v -749.597 -33.2522 2738.38
vt 749.597 -2738.38
f 17/35/4 12/30/4 18/37/4

vn 0.148673 -8.08561e-07 0.988886
vt -1142.59 -33.2501
v -743.861 316.498 2737.52
vt -1142.59 316.5
f 18/13/17 12/38/17 19/39/17

vn -0.988886 8.76452e-07 0.148673
vt 2596.5 316.497
f 12/27/18 11/22/18 19/40/18

vt -742.243 -2748.27
vt -743.366 -2737.44
vt -743.861 -2737.52
f 11/41/9 14/42/9 19/43/9

v -741.749 316.498 2748.2
vt -741.749 -2748.2
f 14/42/9 11/41/9 20/44/9

vn 0.988886 -8.76452e-07 -0.148673
f 5/2/19 14/32/19 20/3/19

vt 1136.29 -33.2501
vn -0.148673 8.08561e-07 -0.988886
vt 1142.09 -33.2501
vt 1142.09 316.5
f 2/45/20 5/46/20 20/47/20

vn -0.148673 8.09546e-07 -0.988886
vt 1136.29 316.5
f 2/45/21 20/47/21 3/48/21

v -737.751 316.498 2735.78
vt -737.751 -2735.78
f 14/42/9 21/49/9 19/43/9

vt -737.631 -2736.58
f 21/49/9 14/42/9 15/50/9

vn 0.988886 -8.77488e-07 -0.148673
vt -2595.69 316.497
f 16/31/22 21/51/22 15/32/22

vn 0.988887 -8.75581e-07 -0.148672
vt -2595.69 -33.2532
f 16/31/23 17/52/23 21/51/23

vn -0.148673 8.10126e-07 -0.988886
v -749.717 316.498 2737.58
f 17/45/24 22/25/24 21/48/24

vn -0.148673 8.08467e-07 -0.988886
v -749.717 -33.2522 2737.58
f 17/45/25 23/24/25 22/25/25

vt 749.717 -2737.58
f 17/35/4 18/37/4 23/53/4

vt 2595.69 -33.2532
vn -0.988887 8.77364e-07 0.148672
v -749.596 316.498 2738.38
f 23/54/26 18/27/26 24/40/26

vn 0.148673 -8.09546e-07 0.988886
f 18/13/27 19/39/27 24/15/27

vt -743.863 -2737.51
vn 6.94356e-06 1 2.44137e-05
vt -737.753 -2735.77
vt -749.598 -2738.37
f 19/55/28 21/56/28 24/57/28

vt -749.597 -2738.38
vn 1.53425e-06 1 -2.30665e-07
vt -737.752 -2735.78
vt -749.717 -2737.58
f 24/58/29 21/59/29 22/60/29

vn -0.988886 8.7583e-07 0.148673
vt 2595.69 316.497
f 23/54/30 24/40/30 22/61/30

